HIERARCHY
ROOT ui
{
	 OFFSET 0 0 0
	 CHANNELS 3 XPosition YPosition Z Position
	 EndSite
	 {
	 OFFSET 0 -1 0
	 }
}
ROOT li
{
	 OFFSET 0 0 0
	 CHANNELS 3 XPosition YPosition Z Position
	 EndSite
	 {
	 OFFSET 0 -1 0
	 }
}
ROOT ul
{
	 OFFSET 0 0 0
	 CHANNELS 3 XPosition YPosition Z Position
	 EndSite
	 {
	 OFFSET 0 -1 0
	 }
}
ROOT ll
{
	 OFFSET 0 0 0
	 CHANNELS 3 XPosition YPosition Z Position
	 EndSite
	 {
	 OFFSET 0 -1 0
	 }
}
ROOT tt
{
	 OFFSET 0 0 0
	 CHANNELS 3 XPosition YPosition Z Position
	 EndSite
	 {
	 OFFSET 0 -1 0
	 }
}
ROOT tb
{
	 OFFSET 0 0 0
	 CHANNELS 3 XPosition YPosition Z Position
	 EndSite
	 {
	 OFFSET 0 -1 0
	 }
}
ROOT td
{
	 OFFSET 0 0 0
	 CHANNELS 3 XPosition YPosition Z Position
	 EndSite
	 {
	 OFFSET 0 -1 0
	 }
}
ROOT v
{
	 OFFSET 0 0 0
	 CHANNELS 3 XPosition YPosition Z Position
	 EndSite
	 {
	 OFFSET 0 -1 0
	 }
}
ROOT bn
{
	 OFFSET 0 0 0
	 CHANNELS 3 XPosition YPosition Z Position
	 EndSite
	 {
	 OFFSET 0 -1 0
	 }
}
MOTION
Frames: 10
Frame Time: 0.002
0.006629382133483887	-0.003853800058364868	0		0.5321173706054687	-2.3944091796875	0		-0.8909268798828125	0.22228274536132814	0		-0.3433396301269531	-2.73468994140625	0		1.64543115234375	-0.47467214965820315	0		3.169712890625	0.1674471435546875	0		4.54119677734375	0.44192282104492187	0		5.9669951171875	0.4815157165527344	0		-0.0822388916015625	5.985283203125	0		
-0.01931551742553711	-0.0034807920455932617	0		0.5041669616699219	-2.394006103515625	0		-0.9017158813476562	0.23242085266113283	0		-0.318171630859375	-2.727118896484375	0		1.634671875	-0.46254037475585935	0		3.17659130859375	0.1562950897216797	0		4.54512353515625	0.43381427001953127	0		5.96704833984375	0.48146560668945315	0		-0.11524711608886719	5.98076708984375	0		
0.006701212882995605	-0.003920655012130738	0		0.5150795288085938	-2.4002119140625	0		-0.8857911376953125	0.226143310546875	0		-0.40201309204101565	-2.71682861328125	0		1.65467138671875	-0.46389385986328124	0		3.18935888671875	0.14004600524902344	0		4.54592529296875	0.4197469482421875	0		5.96707080078125	0.48140533447265627	0		-0.08390292358398438	5.99924658203125	0		
-0.008134478569030762	0.007288517951965332	0		0.521160888671875	-2.393336181640625	0		-0.8717545776367187	0.22890370178222658	0		-0.3338158569335937	-2.7029228515625	0		1.6697342529296875	-0.45916793823242186	0		3.22262841796875	0.15747596740722655	0		4.55413720703125	0.4335608825683594	0		5.97218896484375	0.48925689697265623	0		-0.08288575744628907	5.9982060546875	0		
0.013760910034179688	0.0029241340160369874	0		0.5361600341796875	-2.389596435546875	0		-0.8885531616210938	0.24415922546386717	0		-0.3875277404785156	-2.6800908203125	0		1.6678485107421874	-0.44917233276367186	0		3.194200927734375	0.1328703308105469	0		4.5637705078125	0.4123437194824219	0		5.97117041015625	0.49019656372070314	0		-0.11417818450927734	5.9786787109375	0		
-0.019410377502441407	-0.003566411018371582	0		0.5319880981445313	-2.394550537109375	0		-0.8237651977539062	0.23413571166992186	0		-0.3645489196777344	-2.67546044921875	0		1.667778076171875	-0.4492033996582031	0		3.19005908203125	0.12788468170166015	0		4.5486015625	0.4055152893066406	0		5.95825439453125	0.4993178405761719	0		-0.1141719512939453	5.9786689453125	0		
-0.00335915207862854	0.0051768279075622555	0		0.5318653564453125	-2.3945615234375	0		-0.8910471801757812	0.2222019805908203	0		-0.4054182739257812	-2.658814208984375	0		1.6676829833984375	-0.4492307434082031	0		3.215558837890625	0.10142890167236328	0		4.56029638671875	0.39125942993164065	0		5.97076123046875	0.47302764892578125	0		-0.11417552185058594	5.9786669921875	0		
-0.019607093811035155	-0.0035656020641326902	0		0.5405908203125	-2.40270751953125	0		-0.8911515502929688	0.22222038269042968	0		-0.3886034240722656	-2.66107177734375	0		1.684486572265625	-0.45452194213867186	0		3.23145068359375	0.10112753295898437	0		4.55795849609375	0.3762220764160156	0		5.9667880859375	0.48099591064453123	0		-0.11418563079833985	5.9786728515625	0		
0.01031588077545166	-0.0010286680459976197	0		0.5086675109863281	-2.38720263671875	0		-0.8770802001953125	0.23402491760253907	0		-0.42646743774414064	-2.64145556640625	0		1.6904833984375	-0.44663735961914064	0		3.231	0.08008241271972656	0		4.56884326171875	0.37597634887695314	0		5.95796142578125	0.4990383605957031	0		-0.08383770751953125	6.001208984375	0		
3.5036799311637877E-4	0.009146217346191407	0		0.5354605102539063	-2.389621337890625	0		-0.8182554321289063	0.2301270751953125	0		-0.39948956298828125	-2.631857666015625	0		1.69341259765625	-0.44270050048828125	0		3.25076318359375	0.07272133636474609	0		4.5533955078125	0.35514453125	0		5.97070263671875	0.4897346496582031	0		-0.08111395263671875	5.98418310546875	0		
